<?xml version="1.0" standalone="no"?><!DOCTYPE svg PUBLIC "-//W3C//DTD SVG 1.1//EN" "http://www.w3.org/Graphics/SVG/1.1/DTD/svg11.dtd"><svg t="1514013425492" class="icon" style="" viewBox="0 0 1024 1024" version="1.1" xmlns="http://www.w3.org/2000/svg" p-id="5365" xmlns:xlink="http://www.w3.org/1999/xlink" width="32" height="32"><defs><style type="text/css"></style></defs><path d="M983.04 515.584c0-143.36-88.064-269.312-217.088-342.528-18.432-10.24-100.352-63.488-133.12-77.312-0.512 30.208-12.288 57.856-26.624 70.144 3.584-38.912-39.424-141.312-135.68-165.888C505.856 46.08 413.184 117.248 409.6 166.912c0 0-38.912-14.848-24.576-71.68-37.888 17.408-93.696 58.88-117.248 71.168-136.704 71.68-230.4 201.216-230.4 349.184 0 87.04 32.256 167.424 87.04 233.472 55.808 157.696 210.944 271.36 386.048 271.36s330.24-113.664 385.536-270.848c54.784-66.56 87.04-146.944 87.04-233.984z" fill="#799AC9" p-id="5366"></path><path d="M689.152 571.904m-178.688 0a178.688 178.688 0 1 0 357.376 0 178.688 178.688 0 1 0-357.376 0Z" fill="#FFFFFF" p-id="5367"></path><path d="M510.464 796.16m-224.256 0a224.256 224.256 0 1 0 448.512 0 224.256 224.256 0 1 0-448.512 0Z" fill="#FFFFFF" p-id="5368"></path><path d="M331.776 571.904m-178.688 0a178.688 178.688 0 1 0 357.376 0 178.688 178.688 0 1 0-357.376 0Z" fill="#FFFFFF" p-id="5369"></path><path d="M693.76 571.904m-68.608 0a68.608 68.608 0 1 0 137.216 0 68.608 68.608 0 1 0-137.216 0Z" fill="#799AC9" p-id="5370"></path><path d="M331.776 571.904m-68.608 0a68.608 68.608 0 1 0 137.216 0 68.608 68.608 0 1 0-137.216 0Z" fill="#799AC9" p-id="5371"></path><path d="M533.504 740.352h-46.592c-3.584 0-6.144 2.56-6.144 6.144v4.096c0 3.584 2.56 6.144 6.144 6.144h15.36v24.576c0 3.584 2.56 6.144 6.144 6.144h4.096c3.584 0 6.144-2.56 6.144-6.144v-24.576h14.848c3.584 0 6.144-2.56 6.144-6.144v-4.096c0-3.584-2.56-6.144-6.144-6.144z" fill="#799AC9" p-id="5372"></path></svg>